#!OML:ASF E:\emotionWalksFemale\Project 1\Capture day 1\Session 1\Female1.ASF
:FULLY-SPECIFIED
:DEGREES
2456
root 10.3427 15.478 19.1958 -2.46485 0.872535 -0.425459
lowerback 7.23537 1.15371 -0.978427
upperback 1.8531 1.46903 0.24245
thorax -2.17312 0.735995 0.666887
lowerneck -6.81918 -1.9007 -6.40446
upperneck 48.0031 -1.55776 0.945568
head 20.0927 -1.63976 1.39926
rclavicle 1.12935e-014 -4.62174e-015
rhumerus -36.6556 4.93285 -83.9738
rradius 30.7532
rwrist 17.3101
rhand -5.12482 -48.5609
rfingers 7.12502
rthumb 20.6735 -77.4798
lclavicle 1.12935e-014 -4.62174e-015
lhumerus -31.2109 9.16196 81.964
lradius 38.7118
lwrist -9.22336
lhand -5.3571 -30.0906
lfingers 7.12502
lthumb 20.4503 -1.14758
rfemur -15.0081 -2.9847 23.5414
rtibia 70.1724
rfoot -0.359507 -6.02503
rtoes -11.477
lfemur -6.20847 -18.375 -28.2665
ltibia 26.1576
lfoot -17.8225 17.1876
ltoes 3.27445
2457
root 10.3473 15.4662 19.2699 -2.46635 0.953894 -0.386724
lowerback 7.26189 1.14043 -1.04865
upperback 1.86629 1.44717 0.288333
thorax -2.17673 0.725359 0.755127
lowerneck -7.68354 -1.99104 -5.89343
upperneck 48.6308 -1.45799 0.27192
head 20.8046 -1.60121 0.974213
rclavicle -1.09797e-014 -4.27387e-015
rhumerus -36.5593 4.97872 -83.9433
rradius 30.6458
rwrist 17.3329
rhand -5.35158 -48.6712
rfingers 7.12502
rthumb 20.4556 -77.6137
lclavicle -1.09797e-014 -4.27387e-015
lhumerus -31.2517 8.88456 82.1567
lradius 38.7295
lwrist -9.55583
lhand -6.36249 -29.9889
lfingers 7.12502
lthumb 19.4839 -0.945086
rfemur -15.9297 -3.07853 23.568
rtibia 70.2601
rfoot -1.87127 -6.73499
rtoes -11.2852
lfemur -6.06563 -18.3902 -28.4191
ltibia 26.5099
lfoot -18.4234 16.8085
ltoes 5.16215
2458
root 10.3569 15.4545 19.3663 -2.67068 0.747205 -0.331562
lowerback 7.12208 1.23049 -1.04672
upperback 1.97875 1.56913 0.2955
thorax -1.98591 0.784845 0.754863
lowerneck -7.4237 -1.94237 -5.99832
upperneck 48.2904 -1.52463 0.59418
head 20.4718 -1.59895 1.15011
rclavicle 2.9476e-015 -4.96962e-017
rhumerus -36.5499 4.72695 -83.8483
rradius 30.5346
rwrist 17.6153
rhand -5.46785 -48.5295
rfingers 7.12502
rthumb 20.3438 -77.4839
lclavicle 2.9476e-015 -4.96962e-017
lhumerus -31.3136 8.90006 82.2321
lradius 38.7054
lwrist -9.95909
lhand -6.67627 -29.8689
lfingers 7.12502
lthumb 19.1821 -0.794857
rfemur -16.5651 -2.96072 23.5381
rtibia 70.2836
rfoot -3.51261 -7.30063
rtoes -11.7102
lfemur -5.52877 -18.4825 -28.8037
ltibia 26.7918
lfoot -18.817 17.1755
ltoes 5.05841
2459
root 10.3473 15.4432 19.4394 -2.70501 0.932722 -0.594712
lowerback 7.34718 1.19445 -0.985821
upperback 1.85837 1.52664 0.435999
thorax -2.23641 0.765119 0.862774
lowerneck -6.90674 -1.9052 -6.2797
upperneck 48.0299 -1.60306 0.971802
head 20.137 -1.62881 1.38293
rclavicle -6.57232e-015 7.87684e-015
rhumerus -36.6616 4.38057 -83.7324
rradius 30.4195
rwrist 18.0191
rhand -5.70022 -48.56
rfingers 7.12502
rthumb 20.1205 -77.5381
lclavicle -6.57232e-015 7.87684e-015
lhumerus -31.4424 9.04413 82.2181
lradius 38.5464
lwrist -10.3116
lhand -6.47274 -29.8045
lfingers 7.12502
lthumb 19.3779 -0.750078
rfemur -17.3845 -3.03453 24.082
rtibia 70.1827
rfoot -5.33882 -8.27861
rtoes -12.7812
lfemur -5.36261 -18.2879 -28.5612
ltibia 27.0882
lfoot -18.8528 16.9997
ltoes 3.58721
2460
root 10.3611 15.4247 19.5168 -2.66023 1.00002 -0.303742
lowerback 7.29125 1.18038 -1.0858
upperback 1.80717 1.49912 0.364811
thorax -2.2581 0.752114 0.848617
lowerneck -6.84139 -1.92899 -6.45068
upperneck 48.0278 -1.67105 1.12409
head 20.1273 -1.66754 1.48061
rclavicle 5.47512e-015 4.78326e-015
rhumerus -36.6344 4.12871 -83.5932
rradius 30.2511
rwrist 18.4313
rhand -6.13641 -48.7765
rfingers 7.12502
rthumb 19.7012 -77.7981
lclavicle 5.47512e-015 4.78326e-015
lhumerus -31.598 9.01721 82.2429
lradius 38.6345
lwrist -10.3713
lhand -6.1319 -29.6279
lfingers 7.12502
lthumb 19.7056 -0.606742
rfemur -18.2307 -3.15699 23.7681
rtibia 70.0818
rfoot -7.03668 -8.98469
rtoes -13.5762
lfemur -5.15176 -18.3896 -29.0948
ltibia 27.356
lfoot -19.0631 17.1911
ltoes 2.76207
2461
root 10.3703 15.407 19.594 -2.68388 1.10759 -0.216127
lowerback 7.25392 1.15808 -1.0925
upperback 1.834 1.47019 0.391365
thorax -2.20987 0.737434 0.883471
lowerneck -6.69689 -1.94341 -6.55479
upperneck 47.9315 -1.67892 1.12715
head 20.018 -1.68566 1.49993
rclavicle -1.32549e-014 -3.27995e-015
rhumerus -36.4989 3.84675 -83.4108
rradius 30.0553
rwrist 18.8356
rhand -6.50842 -48.9113
rfingers 7.12502
rthumb 19.3436 -77.9692
lclavicle -1.32549e-014 -3.27995e-015
lhumerus -31.711 9.05311 82.3182
lradius 38.8027
lwrist -10.3006
lhand -5.76071 -29.4606
lfingers 7.12502
lthumb 20.0624 -0.476442
rfemur -18.9915 -3.27306 23.7171
rtibia 69.8691
rfoot -8.16505 -9.64745
rtoes -13.7445
lfemur -4.90028 -18.3776 -29.3765
ltibia 27.6374
lfoot -19.4388 17.1821
ltoes 2.49606
2462
root 10.3727 15.3887 19.6701 -2.73884 1.26104 -0.11908
lowerback 7.29855 1.13679 -1.17504
upperback 1.85874 1.43604 0.416558
thorax -2.21096 0.720667 0.958281
lowerneck -6.68951 -1.97937 -6.56997
upperneck 47.8676 -1.68905 1.03285
head 19.97 -1.701 1.45281
rclavicle -1.94592e-014 -2.98177e-016
rhumerus -36.4372 3.83041 -83.3552
rradius 30.0035
rwrist 18.8455
rhand -6.53138 -49.1188
rfingers 7.12502
rthumb 19.3215 -78.179
lclavicle -1.94592e-014 -2.98177e-016
lhumerus -31.6526 9.15654 82.4193
lradius 38.5919
lwrist -10.4129
lhand -5.64767 -29.5129
lfingers 7.12502
lthumb 20.171 -0.540165
rfemur -19.7718 -3.37127 23.7105
rtibia 69.6085
rfoot -9.18477 -10.363
rtoes -13.6649
lfemur -4.6143 -18.2487 -29.6084
ltibia 27.8302
lfoot -19.7148 17.0389
ltoes 3.16978
2463
root 10.3757 15.3733 19.7523 -2.81847 1.29392 0.0323934
lowerback 7.241 1.15606 -1.28032
upperback 1.92335 1.45458 0.405434
thorax -2.11512 0.729436 1.00613
lowerneck -6.63033 -2.00177 -6.62949
upperneck 47.725 -1.71756 1.04108
head 19.8529 -1.71754 1.46226
rclavicle -1.53716e-014 1.39149e-015
rhumerus -36.3684 3.92868 -83.3627
rradius 29.9584
rwrist 18.8215
rhand -6.57549 -49.1617
rfingers 7.12502
rthumb 19.2791 -78.2261
lclavicle -1.53716e-014 1.39149e-015
lhumerus -31.5013 9.04113 82.5228
lradius 38.2257
lwrist -10.5132
lhand -5.67126 -29.6385
lfingers 7.12502
lthumb 20.1483 -0.663306
rfemur -20.4944 -3.33136 23.6333
rtibia 69.2419
rfoot -10.5802 -11.1809
rtoes -13.8809
lfemur -4.26118 -18.1977 -29.9422
ltibia 28.0223
lfoot -19.8931 17.074
ltoes 3.99982
2464
root 10.378 15.3607 19.8287 -2.80694 1.36057 0.0884109
lowerback 7.23565 1.16746 -1.31213
upperback 1.9002 1.46762 0.412519
thorax -2.13734 0.736315 1.02991
lowerneck -6.22013 -1.99371 -6.77339
upperneck 47.4128 -1.78683 1.22731
head 19.5206 -1.7399 1.56951
rclavicle -2.81839e-014 9.59136e-015
rhumerus -36.4019 3.63858 -83.252
rradius 29.8832
rwrist 19.1832
rhand -6.9091 -48.9604
rfingers 7.12502
rthumb 18.9582 -78.0565
lclavicle -2.81839e-014 9.59136e-015
lhumerus -31.5985 8.8261 82.6016
lradius 38.1929
lwrist -10.4321
lhand -5.39686 -29.376
lfingers 7.12502
lthumb 20.4121 -0.428886
rfemur -21.2726 -3.24294 23.6666
rtibia 68.7703
rfoot -11.2739 -11.8806
rtoes -10.9514
lfemur -3.99976 -18.2645 -30.1378
ltibia 28.16
lfoot -20.2232 16.9868
ltoes 4.38609
2465
root 10.3796 15.3462 19.9002 -2.76283 1.5441 0.208882
lowerback 7.33558 1.12408 -1.43703
upperback 1.81716 1.39951 0.431559
thorax -2.27997 0.704268 1.12298
lowerneck -7.40372 -2.08268 -5.79228
upperneck 48.4653 -1.53373 0.0191432
head 20.5906 -1.62931 0.816692
rclavicle -2.55935e-015 3.18055e-015
rhumerus -36.5456 3.18959 -83.0592
rradius 29.9218
rwrist 19.7238
rhand -7.03099 -48.7737
rfingers 7.12502
rthumb 18.841 -77.8812
lclavicle -2.55935e-015 3.18055e-015
lhumerus -31.7994 8.87008 82.6643
lradius 38.2521
lwrist -10.4726
lhand -5.02161 -29.1912
lfingers 7.12502
lthumb 20.7727 -0.283108
rfemur -22.0349 -3.23341 23.6165
rtibia 68.2022
rfoot -12.2764 -12.6529
rtoes -11.3108
lfemur -3.77751 -18.3544 -30.3764
ltibia 28.2714
lfoot -20.6243 16.7946
ltoes 4.93245
2466
root 10.3838 15.3334 19.9744 -2.77606 1.77537 0.406
lowerback 7.4001 1.05308 -1.60168
upperback 1.80719 1.29179 0.434224
thorax -2.32638 0.651775 1.22699
lowerneck -6.28543 -1.97894 -6.83149
upperneck 47.5277 -1.73901 1.22234
head 19.62 -1.73254 1.58759
rclavicle 3.95706e-015 1.33186e-014
rhumerus -36.5303 3.04263 -82.9746
rradius 29.9256
rwrist 19.9374
rhand -6.88823 -48.7398
rfingers 7.12502
rthumb 18.9783 -77.8339
lclavicle 3.95706e-015 1.33186e-014
lhumerus -31.8158 9.05945 82.7052
lradius 38.0989
lwrist -10.6942
lhand -4.67245 -29.0168
lfingers 7.12502
lthumb 21.1081 -0.145728
rfemur -22.6715 -3.31852 23.4326
rtibia 67.5068
rfoot -13.2079 -13.4537
rtoes -12.1232
lfemur -3.44362 -18.4309 -30.7463
ltibia 28.3629
lfoot -20.8893 16.6798
ltoes 5.33019
